<svg width="800" height="500" viewBox="0 0 800 500" fill="none" xmlns="http://www.w3.org/2000/svg">
  <rect width="800" height="500" rx="40" fill="#F6E9D7"/>
  <ellipse cx="400" cy="260" rx="220" ry="130" fill="#D8C5AB"/>
  <ellipse cx="400" cy="244" rx="188" ry="108" fill="#F6F0DE"/>
  <ellipse cx="400" cy="238" rx="156" ry="86" fill="#E8D4AA"/>
  <path d="M305 220C330 194 362 182 402 180" stroke="#D3A75E" stroke-width="16" stroke-linecap="round"/>
  <path d="M455 216C485 232 510 252 522 280" stroke="#8FA16E" stroke-width="16" stroke-linecap="round"/>
  <circle cx="318" cy="286" r="24" fill="#B5C98D"/>
  <path d="M500 192C500 166 520 146 548 146C573 146 592 163 592 188C592 228 548 246 548 246C548 246 500 228 500 192Z" fill="#D8B24E"/>
</svg>
